<svg width="138" height="24" fill="none" xmlns="http://www.w3.org/2000/svg"><path d="M28.496 19 24.39 4.455h2.833l2.621 10.688h.135l2.798-10.688h2.578l2.806 10.696h.128l2.62-10.696h2.834L39.64 19h-2.6L34.129 8.794h-.114L31.095 19h-2.6Zm20.607.213c-1.065 0-1.989-.234-2.77-.703a4.774 4.774 0 0 1-1.818-1.967c-.426-.843-.64-1.828-.64-2.955s.214-2.114.64-2.962a4.765 4.765 0 0 1 1.818-1.974c.781-.469 1.705-.703 2.77-.703s1.989.234 2.77.703a4.718 4.718 0 0 1 1.81 1.974c.432.848.647 1.835.647 2.962 0 1.127-.215 2.112-.646 2.955a4.727 4.727 0 0 1-1.811 1.967c-.781.469-1.705.703-2.77.703Zm.014-2.06c.578 0 1.06-.158 1.45-.475.387-.322.676-.753.865-1.293.195-.54.292-1.141.292-1.804 0-.668-.097-1.271-.291-1.811-.19-.545-.479-.978-.867-1.3-.388-.322-.871-.483-1.449-.483-.592 0-1.084.161-1.477.483-.388.322-.68.755-.874 1.3a5.444 5.444 0 0 0-.284 1.811c0 .663.095 1.264.284 1.804.195.54.486.97.874 1.293.393.317.885.475 1.477.475ZM56.512 19V8.09h2.493v1.82h.114c.199-.63.54-1.116 1.023-1.457a2.815 2.815 0 0 1 1.669-.518c.142 0 .3.007.476.021.18.01.329.026.447.05v2.365a2.71 2.71 0 0 0-.518-.1 4.78 4.78 0 0 0-.675-.05c-.469 0-.89.102-1.264.306-.37.199-.66.476-.874.831a2.34 2.34 0 0 0-.32 1.229V19h-2.57Zm10.274-3.423-.007-3.104h.412l3.92-4.382h3.004l-4.822 5.37h-.533l-1.974 2.116ZM64.442 19V4.455h2.571V19h-2.57Zm6.847 0-3.551-4.964 1.733-1.812L74.364 19h-3.075Z" fill="#2A18FF"/><path d="M87.716 8.09a2.23 2.23 0 0 0-1.037-1.675c-.606-.398-1.35-.597-2.23-.597-.644 0-1.207.104-1.69.313-.479.208-.853.494-1.123.86a2.06 2.06 0 0 0-.397 1.242c0 .388.092.722.277 1.001.189.275.43.505.724.69.294.18.601.328.923.447.322.113.618.206.888.277l1.477.398c.38.099.8.236 1.265.411.468.176.916.415 1.342.718.43.298.786.681 1.065 1.15.28.469.42 1.044.42 1.726 0 .786-.207 1.496-.619 2.13-.407.635-1.003 1.14-1.79 1.514-.78.374-1.73.56-2.847.56-1.042 0-1.944-.167-2.706-.504-.758-.336-1.355-.805-1.79-1.406-.431-.601-.675-1.3-.732-2.095h1.819c.047.55.232 1.004.553 1.364.327.355.74.62 1.236.795.502.17 1.042.256 1.62.256.672 0 1.276-.11 1.81-.327.536-.223.96-.53 1.272-.923.313-.398.469-.862.469-1.392 0-.483-.135-.876-.405-1.18-.27-.302-.625-.549-1.065-.738-.44-.19-.917-.355-1.428-.497l-1.79-.511c-1.136-.327-2.036-.793-2.699-1.4-.663-.606-.994-1.399-.994-2.379 0-.814.22-1.524.66-2.13.446-.611 1.042-1.085 1.79-1.42.753-.342 1.594-.512 2.522-.512.937 0 1.77.168 2.5.504.729.331 1.306.786 1.733 1.364.43.577.658 1.233.681 1.967h-1.704Zm4.572 15v-15h1.62v1.734h.198c.123-.19.294-.431.512-.725.222-.298.54-.563.951-.795.417-.237.98-.355 1.69-.355.92 0 1.729.23 2.43.689.7.46 1.247 1.11 1.64 1.953.393.843.59 1.837.59 2.983 0 1.155-.197 2.157-.59 3.004-.393.843-.937 1.496-1.633 1.96-.696.46-1.499.69-2.408.69-.7 0-1.262-.117-1.683-.349-.422-.237-.746-.504-.973-.802a10.777 10.777 0 0 1-.526-.753h-.142v5.767h-1.676Zm1.648-9.544c0 .823.12 1.55.362 2.18.241.625.594 1.115 1.058 1.47.464.35 1.032.526 1.705.526.7 0 1.285-.185 1.754-.554.474-.374.829-.876 1.065-1.506.242-.635.363-1.34.363-2.117 0-.767-.119-1.458-.356-2.073-.232-.62-.584-1.11-1.058-1.47-.469-.365-1.058-.547-1.768-.547-.682 0-1.255.172-1.719.518-.464.34-.814.82-1.051 1.435-.237.61-.355 1.323-.355 2.138Zm13.75 5.71c-.692 0-1.319-.13-1.882-.39a3.232 3.232 0 0 1-1.343-1.144c-.331-.502-.497-1.108-.497-1.819 0-.625.123-1.131.369-1.52.247-.392.576-.7.988-.923a5.188 5.188 0 0 1 1.363-.497 16.57 16.57 0 0 1 1.513-.27c.663-.085 1.2-.149 1.612-.192.417-.047.72-.125.909-.234.195-.109.292-.298.292-.568v-.057c0-.7-.192-1.245-.576-1.633-.378-.389-.954-.583-1.726-.583-.8 0-1.427.175-1.882.526-.454.35-.774.724-.958 1.122l-1.591-.568c.284-.663.663-1.18 1.136-1.549a4.258 4.258 0 0 1 1.562-.78 6.494 6.494 0 0 1 1.677-.228c.35 0 .752.042 1.207.128.459.08.902.248 1.328.504.431.256.788.642 1.073 1.158.284.516.426 1.207.426 2.073V19h-1.676v-1.477h-.086c-.113.236-.303.49-.568.76-.265.27-.618.5-1.058.689-.44.189-.978.284-1.612.284Zm.255-1.506c.663 0 1.222-.13 1.677-.39.459-.261.804-.597 1.036-1.01.237-.411.356-.844.356-1.299v-1.534c-.071.085-.228.163-.469.234a7.953 7.953 0 0 1-.824.178 37.67 37.67 0 0 1-1.605.213c-.436.057-.843.15-1.222.277-.374.123-.677.31-.909.561-.227.246-.341.582-.341 1.009 0 .582.216 1.022.647 1.32.435.294.987.441 1.654.441Zm12.236 1.477c-1.023 0-1.904-.241-2.642-.724-.739-.483-1.307-1.148-1.705-1.996-.397-.847-.596-1.816-.596-2.905 0-1.108.203-2.085.61-2.933.412-.852.985-1.517 1.719-1.996.739-.483 1.601-.724 2.585-.724.767 0 1.459.142 2.074.426.616.284 1.12.682 1.513 1.193.393.511.637 1.108.732 1.79h-1.677c-.127-.497-.411-.938-.852-1.321-.435-.388-1.023-.582-1.761-.582-.654 0-1.226.17-1.719.51-.488.337-.869.813-1.143 1.428-.27.611-.405 1.329-.405 2.152 0 .843.132 1.577.398 2.202.269.625.648 1.11 1.136 1.456.492.346 1.07.519 1.733.519.435 0 .831-.076 1.186-.228.355-.151.656-.369.902-.653.246-.284.421-.625.525-1.023h1.677a3.877 3.877 0 0 1-2.174 2.962c-.606.298-1.311.447-2.116.447Zm11.314 0c-1.051 0-1.958-.232-2.72-.696a4.67 4.67 0 0 1-1.755-1.96c-.407-.843-.61-1.823-.61-2.94 0-1.118.203-2.103.61-2.955.412-.857.985-1.524 1.719-2.003.739-.483 1.6-.724 2.585-.724.568 0 1.13.095 1.684.284.554.19 1.058.497 1.512.923.455.422.817.98 1.087 1.676s.405 1.553.405 2.571v.71h-8.409v-1.448h6.704c0-.616-.123-1.165-.369-1.648a2.785 2.785 0 0 0-1.037-1.143c-.445-.28-.971-.42-1.577-.42-.667 0-1.245.166-1.733.498a3.274 3.274 0 0 0-1.115 1.278 3.76 3.76 0 0 0-.39 1.69v.966c0 .824.142 1.523.426 2.096a3.076 3.076 0 0 0 1.2 1.3c.511.293 1.106.44 1.783.44.44 0 .838-.062 1.193-.185.36-.128.67-.317.93-.568.261-.256.462-.573.604-.952l1.619.455a3.59 3.59 0 0 1-.859 1.448 4.19 4.19 0 0 1-1.491.966c-.592.228-1.258.341-1.996.341Z" fill="#171717"/><path d="M2 6h14v4M15 18H1v-4" stroke="#171717" stroke-width="1.5"/><path d="M5 19.5h5.5" stroke="#171717" stroke-width="2"/></svg>